#!OML:ASF I:\golf\golf\golf 2\Subject 1\2002-09-07\Subject1.ASF
:FULLY-SPECIFIED
:DEGREES
404
root -0.89533 16.7143 -4.07785 84.7807 30.9171 26.4208
lowerback 8.44433 2.05838 9.3601
upperback 9.53444 3.10881 10.7266
thorax 5.30723 1.75814 6.09683
lowerneck -12.0632 -10.8787 -1.14565
upperneck -2.24304 -14.6312 0.733589
head 1.41696 -7.41472 -0.298201
rclavicle 9.54166e-015 -7.63333e-014
rhumerus 43.3851 -13.3941 -43.8693
rradius 23.8707
rwrist -8.2882
rhand -26.5979 5.24983
rfingers 7.12502
rthumb -0.0317592 -24.7299
lclavicle 9.54166e-015 -7.63333e-014
lhumerus -36.28 -39.9758 108.455
lradius 78.8158
lwrist -1.22782
lhand -40.3292 27.9868
lfingers 7.12502
lthumb -13.2851 57.5433
rfemur -111.503 -22.0485 20.2772
rtibia 50.0785
rfoot -4.91102 -2.39381
rtoes 2.4183
lfemur -87.8775 -15.7932 -10.6166
ltibia 34.9277
lfoot -7.51341 -20.6982
ltoes -2.87863
405
root -0.874169 16.7792 -4.09524 82.991 31.0484 25.6722
lowerback 9.60771 2.04073 9.34641
upperback 9.7533 3.24757 10.7539
thorax 4.89044 1.82221 6.0769
lowerneck -12.2566 -10.854 -1.02098
upperneck -2.02771 -14.6054 0.611355
head 1.50212 -7.40151 -0.372875
rclavicle -1.27222e-014 -2.46493e-014
rhumerus 42.1281 -12.1382 -42.9393
rradius 24.2869
rwrist -9.22844
rhand -24.8182 5.63465
rfingers 7.12502
rthumb 1.68713 -24.3384
lclavicle -1.27222e-014 -2.46493e-014
lhumerus -36.1579 -39.9481 108.372
lradius 78.7035
lwrist -1.15193
lhand -40.2073 28.1239
lfingers 7.12502
lthumb -13.1676 57.6881
rfemur -109.505 -21.568 19.9715
rtibia 49.3345
rfoot -4.90443 -2.20645
rtoes 2.43253
lfemur -86.0808 -15.6674 -10.6542
ltibia 34.5611
lfoot -7.52532 -20.3596
ltoes -2.11062
406
root -0.853284 16.8461 -4.11159 81.0582 31.0689 24.7759
lowerback 10.8244 2.07903 9.24435
upperback 9.9932 3.45483 10.7399
thorax 4.46551 1.91533 6.05279
lowerneck -12.4041 -10.8048 -1.00168
upperneck -1.88808 -14.5355 0.692305
head 1.57911 -7.36118 -0.36394
rclavicle -9.54166e-015 7.15625e-015
rhumerus 40.8108 -10.8517 -42.1385
rradius 24.7759
rwrist -9.81595
rhand -23.4091 6.27908
rfingers 7.12502
rthumb 3.04806 -23.6789
lclavicle -9.54166e-015 7.15625e-015
lhumerus -36.0239 -39.9431 108.253
lradius 78.5121
lwrist -1.00617
lhand -39.9463 27.7795
lfingers 7.12502
lthumb -12.916 57.3598
rfemur -107.412 -20.9368 19.763
rtibia 48.3772
rfoot -4.54754 -1.97737
rtoes 1.91003
lfemur -84.0417 -15.4235 -10.8626
ltibia 33.9504
lfoot -7.54566 -20.0155
ltoes -0.989192
407
root -0.833818 16.955 -4.10192 77.8869 30.9914 23.287
lowerback 13.2054 2.21307 9.08565
upperback 10.4594 3.93107 10.7679
thorax 3.64569 2.13068 6.02958
lowerneck -12.6804 -10.758 -1.08242
upperneck -1.55218 -14.4501 0.784838
head 1.75299 -7.30876 -0.35292
rclavicle -3.18055e-015 1.43125e-014
rhumerus 39.4644 -9.59656 -41.4765
rradius 25.3296
rwrist -10.2413
rhand -22.1619 7.04901
rfingers 7.12502
rthumb 4.25241 -22.8883
lclavicle -3.18055e-015 1.43125e-014
lhumerus -35.9558 -39.8633 108.235
lradius 78.3342
lwrist -0.925825
lhand -39.5512 27.6814
lfingers 7.12502
lthumb -12.5351 57.2854
rfemur -103.988 -19.7772 19.4981
rtibia 46.9359
rfoot -4.17424 -1.54513
rtoes 0.944767
lfemur -80.454 -14.8093 -11.3642
ltibia 32.7338
lfoot -7.50462 -19.7237
ltoes -0.245776
408
root -0.820768 17.1707 -4.03125 71.6788 30.5782 20.2912
lowerback 18.612 2.60411 8.7491
upperback 11.4447 5.09087 10.9221
thorax 1.78884 2.64615 5.995
lowerneck -12.921 -10.7271 -1.12207
upperneck -1.11533 -14.3858 0.591721
head 1.92932 -7.27342 -0.435808
rclavicle -5.40694e-014 5.1684e-014
rhumerus 38.1513 -8.36575 -41.0036
rradius 25.9002
rwrist -10.2295
rhand -21.1493 7.80964
rfingers 7.12502
rthumb 5.23019 -22.1058
lclavicle -5.40694e-014 5.1684e-014
lhumerus -35.9882 -39.6779 108.366
lradius 78.1704
lwrist -0.910005
lhand -39.3118 27.7714
lfingers 7.12502
lthumb -12.3043 57.3894
rfemur -97.5757 -17.2582 19.0673
rtibia 45.0816
rfoot -4.14567 -0.830848
rtoes 0.571599
lfemur -73.3404 -13.2602 -12.2102
ltibia 30.4836
lfoot -7.52446 -19.2523
ltoes -0.550878
409
root -0.804538 17.5389 -3.85132 60.0815 28.5036 15.1634
lowerback 29.9028 3.85634 7.42368
upperback 13.2437 7.6986 11.255
thorax -1.99963 3.73108 5.95683
lowerneck -12.8331 -10.8014 -1.15197
upperneck -0.944345 -14.4691 0.22247
head 1.94375 -7.32275 -0.548207
rclavicle -5.725e-014 -1.10524e-013
rhumerus 36.6396 -7.22446 -40.2405
rradius 26.4755
rwrist -9.90218
rhand -20.4777 8.53085
rfingers 7.12502
rthumb 5.87863 -21.3676
lclavicle -5.725e-014 -1.10524e-013
lhumerus -36.1658 -39.7728 108.91
lradius 77.9926
lwrist -0.791792
lhand -39.1847 27.7864
lfingers 7.12502
lthumb -12.1818 57.4117
rfemur -85.9233 -12.6169 18.3141
rtibia 43.0521
rfoot -5.05425 0.615597
rtoes 1.02885
lfemur -60.2802 -10.2846 -13.831
ltibia 27.9947
lfoot -9.0959 -18.1497
ltoes -2.21171
410
root -0.74253 17.8126 -3.68742 49.1809 25.911 12.9142
lowerback 42.8992 4.74467 6.38095
upperback 13.7889 9.7412 11.564
thorax -5.9281 4.36726 5.15973
lowerneck -12.6845 -11.0016 -1.16744
upperneck -0.870673 -14.7306 -0.0288031
head 1.92271 -7.4602 -0.628933
rclavicle 3.49861e-014 -2.3059e-014
rhumerus 34.7727 -6.1319 -39.0024
rradius 27.1903
rwrist -9.86551
rhand -19.6098 8.94841
rfingers 7.12502
rthumb 6.71648 -20.9251
lclavicle 3.49861e-014 -2.3059e-014
lhumerus -36.3542 -40.2806 109.749
lradius 77.7543
lwrist -0.808427
lhand -38.9037 28.2208
lfingers 7.12502
lthumb -11.9107 57.862
rfemur -73.6277 -9.9917 16.5689
rtibia 41.4163
rfoot -5.90886 1.9096
rtoes 2.42163
lfemur -46.5078 -8.98812 -16.4278
ltibia 25.4309
lfoot -10.8063 -16.9626
ltoes -4.03189
411
root -0.7125 17.8175 -3.74074 48.5321 25.8181 12.6397
lowerback 42.5691 4.76819 6.23391
upperback 13.7638 9.68228 11.5366
thorax -5.87644 4.34843 5.23841
lowerneck -12.7859 -10.9878 -1.31394
upperneck -0.600078 -14.6813 0.0850182
head 2.053 -7.42671 -0.590309
rclavicle -6.36111e-014 -1.59028e-014
rhumerus 33.4719 -4.71209 -38.5484
rradius 27.8507
rwrist -9.83451
rhand -18.5296 9.32707
rfingers 7.12502
rthumb 7.75918 -20.5106
lclavicle -6.36111e-014 -1.59028e-014
lhumerus -36.2206 -40.185 109.738
lradius 77.4765
lwrist -1.2102
lhand -38.5371 29.0939
lfingers 7.12502
lthumb -11.5573 58.7552
rfemur -72.7234 -9.95618 16.6271
rtibia 40.3774
rfoot -4.77719 2.09309
rtoes 4.36173
lfemur -44.965 -8.92309 -16.5857
ltibia 23.4047
lfoot -10.2417 -16.6096
ltoes -5.86001
412
root -0.677777 17.8168 -3.79857 47.9947 25.8106 12.4537
lowerback 42.111 4.65846 6.23727
upperback 13.678 9.51324 11.4481
thorax -5.80768 4.28575 5.22724
lowerneck -12.8034 -10.9566 -1.32791
upperneck -0.357921 -14.6252 -0.00140502
head 2.13229 -7.39619 -0.623152
rclavicle 5.40694e-014 -8.82604e-014
rhumerus 32.2255 -3.35927 -38.3623
rradius 28.4377
rwrist -9.64863
rhand -17.8441 9.76369
rfingers 7.12502
rthumb 8.42082 -20.0484
lclavicle 5.40694e-014 -8.82604e-014
lhumerus -36.1884 -40.1261 109.692
lradius 77.2486
lwrist -1.57161
lhand -38.2491 30.4125
lfingers 7.12502
lthumb -11.2795 60.0893
rfemur -72.2164 -10.0842 16.7151
rtibia 39.993
rfoot -4.23638 2.29792
rtoes 5.17358
lfemur -43.936 -8.90422 -16.788
ltibia 22.2352
lfoot -10.0339 -16.4118
ltoes -6.90201
413
root -0.64009 17.821 -3.85592 47.4183 25.8478 12.2858
lowerback 41.6766 4.50818 6.31934
upperback 13.572 9.32937 11.3507
thorax -5.75095 4.21668 5.17163
lowerneck -12.9662 -10.9096 -1.32128
upperneck 0.0390085 -14.5432 -0.151841
head 2.28377 -7.353 -0.693801
rclavicle 0 1.11319e-014
rhumerus 30.9974 -2.20099 -38.4724
rradius 28.9378
rwrist -9.23995
rhand -17.4595 10.298
rfingers 7.12502
rthumb 8.79191 -19.4989
lclavicle 0 1.11319e-014
lhumerus -36.2916 -40.0879 109.713
lradius 77.1359
lwrist -1.8477
lhand -38.0211 31.3964
lfingers 7.12502
lthumb -11.0596 61.085
rfemur -71.8158 -10.2776 16.8409
rtibia 39.9492
rfoot -4.15208 2.53538
rtoes 4.3901
lfemur -43.5552 -8.85007 -17.027
ltibia 22.4234
lfoot -10.2887 -16.472
ltoes -5.68726
414
root -0.604758 17.8309 -3.90961 46.6522 25.8322 11.9589
lowerback 41.2997 4.45821 6.28903
upperback 13.5268 9.22639 11.3177
thorax -5.67987 4.18021 5.20674
lowerneck -13.2366 -10.8489 -1.45497
upperneck 0.562889 -14.4214 -0.139709
head 2.52394 -7.28311 -0.705543
rclavicle 1.43125e-013 5.56597e-014
rhumerus 29.7825 -0.96944 -38.5169
rradius 29.4962
rwrist -8.99893
rhand -17.1898 10.8164
rfingers 7.12502
rthumb 9.05223 -18.9694
lclavicle 1.43125e-013 5.56597e-014
lhumerus -36.3486 -39.8673 109.755
lradius 76.884
lwrist -2.31652
lhand -37.5578 31.3516
lfingers 7.12502
lthumb -10.6127 61.0636
rfemur -71.2563 -10.2796 17.0071
rtibia 39.8954
rfoot -4.05608 2.74461
rtoes 3.20979
lfemur -43.061 -8.79828 -17.0848
ltibia 22.6398
lfoot -10.2804 -16.4504
ltoes -3.04584
